<svg xmlns="http://www.w3.org/2000/svg" viewBox="0 0 1400 760" role="img" aria-label="Community Cup football stadium banner">
  <defs>
    <linearGradient id="sky" x1="0" x2="1" y1="0" y2="1">
      <stop offset="0" stop-color="#050505"/>
      <stop offset=".45" stop-color="#050505"/>
      <stop offset="1" stop-color="#18e66d"/>
    </linearGradient>
    <radialGradient id="light" cx="50%" cy="18%" r="65%">
      <stop offset="0" stop-color="#ffffff" stop-opacity=".62"/>
      <stop offset=".3" stop-color="#18e66d" stop-opacity=".22"/>
      <stop offset="1" stop-color="#000000" stop-opacity="0"/>
    </radialGradient>
  </defs>
  <rect width="1400" height="760" fill="url(#sky)"/>
  <rect width="1400" height="760" fill="url(#light)"/>
  <g opacity=".48">
    <rect y="385" width="1400" height="170" fill="#090909"/>
    <path d="M0 384h1400v42H0z" fill="#ffffff" opacity=".18"/>
    <g fill="#ffffff" opacity=".35">
      <rect x="72" y="424" width="80" height="18"/>
      <rect x="190" y="424" width="80" height="18"/>
      <rect x="308" y="424" width="80" height="18"/>
      <rect x="426" y="424" width="80" height="18"/>
      <rect x="544" y="424" width="80" height="18"/>
      <rect x="662" y="424" width="80" height="18"/>
      <rect x="780" y="424" width="80" height="18"/>
      <rect x="898" y="424" width="80" height="18"/>
      <rect x="1016" y="424" width="80" height="18"/>
      <rect x="1134" y="424" width="80" height="18"/>
      <rect x="1252" y="424" width="80" height="18"/>
    </g>
  </g>
  <g transform="translate(0 520)">
    <path d="M0 240V78c207-58 453-79 700-79s493 21 700 79v162z" fill="#050505"/>
    <path d="M0 240V116c233-50 466-73 700-73s467 23 700 73v124z" fill="#18e66d" opacity=".58"/>
    <path d="M700 43v197M262 91c127 14 280 21 438 21s311-7 438-21" stroke="#ffffff" stroke-width="5" opacity=".65" fill="none"/>
    <circle cx="700" cy="142" r="66" fill="none" stroke="#ffffff" stroke-width="5" opacity=".72"/>
  </g>
</svg>
