<svg xmlns="http://www.w3.org/2000/svg" viewBox="0 0 1400 760" role="img" aria-label="Friday Goodies Cup football night banner">
  <defs>
    <linearGradient id="night" x1="0" x2="1" y1="0" y2="1">
      <stop offset="0" stop-color="#000000"/>
      <stop offset=".58" stop-color="#050505"/>
      <stop offset="1" stop-color="#18e66d"/>
    </linearGradient>
    <radialGradient id="glow" cx="70%" cy="28%" r="70%">
      <stop offset="0" stop-color="#18e66d" stop-opacity=".72"/>
      <stop offset=".3" stop-color="#ffffff" stop-opacity=".18"/>
      <stop offset="1" stop-color="#000000" stop-opacity="0"/>
    </radialGradient>
  </defs>
  <rect width="1400" height="760" fill="url(#night)"/>
  <rect width="1400" height="760" fill="url(#glow)"/>
  <g opacity=".72">
    <path d="M110 138h1180v338H110z" fill="#050505"/>
    <path d="M153 181h1094v252H153z" fill="#050505"/>
    <path d="M153 433h1094v43H153z" fill="#18e66d"/>
    <g fill="#ffffff" opacity=".75">
      <rect x="210" y="230" width="90" height="34"/>
      <rect x="335" y="230" width="90" height="34"/>
      <rect x="460" y="230" width="90" height="34"/>
      <rect x="585" y="230" width="90" height="34"/>
      <rect x="710" y="230" width="90" height="34"/>
      <rect x="835" y="230" width="90" height="34"/>
      <rect x="960" y="230" width="90" height="34"/>
      <rect x="1085" y="230" width="90" height="34"/>
    </g>
  </g>
  <g transform="translate(0 480)">
    <path d="M0 280V104c204-42 437-64 700-64s496 22 700 64v176z" fill="#050505"/>
    <path d="M103 270c170-74 369-111 597-111s427 37 597 111" fill="none" stroke="#ffffff" stroke-width="5" opacity=".62"/>
    <path d="M700 42v238" stroke="#ffffff" stroke-width="5" opacity=".55"/>
    <circle cx="700" cy="171" r="72" fill="none" stroke="#ffffff" stroke-width="5" opacity=".72"/>
  </g>
  <g transform="translate(1010 92)" opacity=".9">
    <rect x="0" y="0" width="170" height="132" rx="10" fill="#ffffff"/>
    <rect x="22" y="24" width="126" height="22" fill="#18e66d"/>
    <rect x="22" y="62" width="126" height="46" fill="#050505"/>
  </g>
</svg>
